<?xml version="1.0" encoding="utf-8"?>
<!-- Generator: Adobe Illustrator 25.1.0, SVG Export Plug-In . SVG Version: 6.00 Build 0)  -->
<svg version="1.1" xmlns="http://www.w3.org/2000/svg" xmlns:xlink="http://www.w3.org/1999/xlink">
<path d="M45.3,27.9v3.5l3.5-2l0.9,1.5l-4.4,2.5v6l5.2-3v-5h1.7v4l3-1.8l0.9,1.5l-3,1.8l3.5,2l-0.9,1.5l-4.4-2.5l-5.2,3l5.2,3
	l4.4-2.5l0.9,1.5l-3.5,2l3,1.8l-0.9,1.5l-3-1.8v4h-1.7v-5l-5.2-3v6l4.4,2.5l-0.9,1.5l-3.5-2v3.5h-1.7v-3.5l-3.5,2l-0.9-1.5l4.4-2.5
	v-6l-5.2,3v5h-1.7v-4l-3,1.8l-0.9-1.5l3-1.8l-3.5-2l0.9-1.5l4.3,2.5l5.2-3l-5.2-3l-4.4,2.5l-0.9-1.5l3.5-2l-3-1.8l0.9-1.5l3,1.8v-4
	h1.7v5l5.2,3v-6l-4.4-2.5l0.9-1.5l3.5,2v-3.5L45.3,27.9L45.3,27.9z"/>
</svg>
